<?xml version="1.0" encoding="UTF-8"?>
<svg id="Ebene_1" xmlns="http://www.w3.org/2000/svg" version="1.1" viewBox="0 0 200 167.2">
  <!-- Generator: Adobe Illustrator 30.3.0, SVG Export Plug-In . SVG Version: 2.1.3 Build 182)  -->
  <defs>
    <style>
      .st0 {
        fill: #fff;
      }
    </style>
  </defs>
  <path class="st0" d="M0,0v167.2h200V0H0ZM195.88,163.08H4.12V4.12h191.77v158.97Z"/>
  <path class="st0" d="M48.51,59.44c-1.17.89-2.82,1.34-4.97,1.34s-4.04-.5-5.38-1.51c-1.35-1.01-2.16-2.31-2.43-3.91h-7.48c.37,3.48,1.87,6.27,4.53,8.37,2.65,2.1,6.22,3.16,10.7,3.16,2.83,0,5.32-.48,7.44-1.44s3.79-2.26,5.01-3.91c1.21-1.65,1.79-3.5,1.75-5.56,0-2.51-.57-4.47-1.71-5.86-1.14-1.39-2.7-2.42-4.66-3.09-1.97-.66-4.21-1.13-6.72-1.41-5.3-.55-7.96-2.06-7.96-4.53,0-1.14.55-2.07,1.65-2.78,1.1-.71,2.58-1.06,4.46-1.06s3.36.4,4.6,1.2c1.23.8,1.94,1.89,2.13,3.26h7c-.37-3.25-1.69-5.81-3.98-7.68-2.29-1.87-5.51-2.81-9.67-2.81s-7.41.92-9.74,2.74c-2.33,1.83-3.5,4.23-3.5,7.2,0,2.1.55,3.85,1.65,5.25,1.1,1.4,2.59,2.49,4.49,3.29,1.9.8,4.01,1.34,6.34,1.61,2.7.32,4.74.8,6.14,1.44,1.39.64,2.09,1.83,2.09,3.57,0,1.19-.58,2.23-1.75,3.12Z"/>
  <path class="st0" d="M69.82,47.95c0-3.2.88-5.65,2.64-7.34,1.76-1.69,3.9-2.54,6.41-2.54s4.32.78,5.69,2.33c1.37,1.56,2.06,3.75,2.06,6.58v19.07h7.27v-20.1c0-4.76-1.1-8.4-3.29-10.94s-5.4-3.81-9.6-3.81c-2.52,0-4.78.56-6.79,1.68-2.01,1.12-3.48,2.53-4.39,4.22v-17.7h-7.27v46.64h7.27v-18.11Z"/>
  <polygon class="st0" points="148.64 66.06 153.79 41.51 158.93 66.06 166.41 66.06 173.82 32.04 166.68 32.04 162.57 55.91 157.7 32.04 149.88 32.04 145.01 55.91 140.89 32.04 133.76 32.04 141.17 66.06 148.64 66.06"/>
  <path class="st0" d="M54.03,99.53h-10.56v-11.32c0-2.61.73-4.85,2.19-6.72,1.46-1.87,3.54-2.81,6.24-2.81h7.41v-7.68h-5.28c-3.2,0-5.64.65-7.3,1.95-1.67,1.3-2.76,3.24-3.26,5.8h-.34v-.82c0-1.92-.59-3.42-1.78-4.49-1.19-1.07-2.72-1.61-4.6-1.61h-8.16v6.31h5.42c1.46,0,2.19.75,2.19,2.26v19.14h-8.3v6.31h26.13v-6.31Z"/>
  <path class="st0" d="M165.09,71c-1.88,0-3.45.46-4.73,1.37-1.28.92-2.22,2.06-2.81,3.43h-.27c-.59-1.55-1.51-2.74-2.74-3.57s-2.67-1.23-4.32-1.23-3.16.45-4.39,1.34-2.15,2.05-2.74,3.46h-.34l-.62-3.98h-6.04v34.02h7v-22.98c0-1.74.41-3.09,1.23-4.05s1.85-1.44,3.09-1.44,2.13.4,2.67,1.2c.55.8.82,1.89.82,3.26v24.01h7.06v-22.98c0-1.74.4-3.09,1.2-4.05.8-.96,1.82-1.44,3.05-1.44s2.14.4,2.71,1.2c.57.8.86,1.89.86,3.26v24.01h7v-25.45c0-2.97-.65-5.28-1.95-6.93s-3.21-2.47-5.73-2.47Z"/>
  <path class="st0" d="M34.21,144.21c2.51,1.49,5.42,2.23,8.71,2.23,4.07,0,7.41-1.11,10.01-3.33,2.61-2.22,4.32-4.95,5.14-8.2h-7.34c-.59,1.56-1.52,2.78-2.78,3.67-1.26.89-2.96,1.34-5.11,1.34-2.47,0-4.62-.81-6.45-2.43-1.83-1.62-2.86-4.01-3.09-7.17h25.58c.05-.64.07-1.22.07-1.75v-1.47c0-2.97-.65-5.69-1.95-8.16s-3.14-4.45-5.52-5.93c-2.38-1.49-5.21-2.23-8.5-2.23s-6.28.75-8.81,2.26-4.5,3.61-5.9,6.31c-1.4,2.7-2.09,5.83-2.09,9.4s.71,6.61,2.13,9.26c1.42,2.65,3.38,4.72,5.9,6.21ZM36.95,119.11c1.74-1.35,3.73-2.02,5.97-2.02,2.47,0,4.5.71,6.1,2.13,1.6,1.42,2.49,3.27,2.67,5.56h-18.11c.5-2.42,1.62-4.31,3.36-5.66Z"/>
  <path class="st0" d="M82.84,119.76c0-2.83-.65-4.9-1.95-6.21s-3.37-1.95-6.21-1.95h-8.85v6.31h7.54c1.46,0,2.19.75,2.19,2.26v19.14h-10.7v6.31h28.67v-6.31h-10.7v-19.55Z"/>
  <path class="st0" d="M118.44,110.78c-2.52,0-4.73.57-6.65,1.71-1.92,1.14-3.34,2.54-4.25,4.18h-.34l-.62-5.08h-6.31v34.02h7.27v-18.11c0-3.2.83-5.65,2.5-7.34,1.67-1.69,3.76-2.54,6.28-2.54s4.43.78,5.62,2.33c1.19,1.56,1.78,3.75,1.78,6.58v19.07h7.27v-19.96c0-4.89-1.05-8.6-3.16-11.11-2.1-2.51-5.24-3.77-9.4-3.77Z"/>
  <path class="st0" d="M162,126.59c-1.97-.66-4.21-1.13-6.72-1.41-5.3-.55-7.96-2.06-7.96-4.53,0-1.14.55-2.07,1.65-2.78,1.1-.71,2.58-1.06,4.46-1.06s3.36.4,4.6,1.2c1.23.8,1.94,1.89,2.13,3.26h7c-.37-3.25-1.69-5.81-3.98-7.68-2.29-1.87-5.51-2.81-9.67-2.81s-7.41.92-9.74,2.74c-2.33,1.83-3.5,4.23-3.5,7.2,0,2.1.55,3.85,1.65,5.25,1.1,1.4,2.59,2.49,4.49,3.29,1.9.8,4.01,1.34,6.34,1.61,2.7.32,4.74.8,6.14,1.44,1.39.64,2.09,1.83,2.09,3.57,0,1.19-.58,2.23-1.75,3.12s-2.82,1.34-4.97,1.34-4.04-.5-5.38-1.51c-1.35-1.01-2.16-2.31-2.43-3.91h-7.48c.37,3.48,1.87,6.27,4.53,8.37,2.65,2.1,6.22,3.16,10.7,3.16,2.83,0,5.32-.48,7.44-1.44,2.13-.96,3.79-2.26,5.01-3.91,1.21-1.65,1.79-3.5,1.75-5.56,0-2.51-.57-4.47-1.71-5.86-1.14-1.39-2.7-2.42-4.66-3.09Z"/>
  <path class="st0" d="M114.77,66.87c10.31.33,18.74-8.1,18.41-18.41-.3-9.34-7.9-16.94-17.24-17.24-10.31-.33-18.74,8.1-18.41,18.41.3,9.34,7.9,16.94,17.24,17.24ZM104.47,48.48c.28-5.54,4.78-10.04,10.32-10.32,6.47-.33,11.79,4.99,11.46,11.46-.28,5.54-4.78,10.04-10.32,10.32-6.47.33-11.79-4.99-11.46-11.46Z"/>
  <path class="st0" d="M114.77,106.65c10.31.33,18.74-8.1,18.41-18.41-.3-9.34-7.9-16.94-17.24-17.24-10.31-.33-18.74,8.1-18.41,18.41.3,9.34,7.9,16.94,17.24,17.24ZM104.47,88.26c.28-5.54,4.78-10.04,10.32-10.32,6.47-.33,11.79,4.99,11.46,11.46-.28,5.54-4.78,10.04-10.32,10.32-6.47.33-11.79-4.99-11.46-11.46Z"/>
  <path class="st0" d="M77.09,106.65c10.31.33,18.74-8.1,18.41-18.41-.3-9.34-7.9-16.94-17.24-17.24-10.31-.33-18.74,8.1-18.41,18.41.3,9.34,7.9,16.94,17.24,17.24ZM66.78,88.26c.28-5.54,4.78-10.04,10.32-10.32,6.47-.33,11.79,4.99,11.46,11.46-.28,5.54-4.78,10.04-10.32,10.32-6.47.33-11.79-4.99-11.46-11.46Z"/>
</svg>